<svg width="30" height="30" viewBox="0 0 30 30" fill="none" xmlns="http://www.w3.org/2000/svg">
<g clip-path="url(#clip0_73_305)">
<path d="M0.284288 17.209C-1.189 10.5619 3.20815 3.25848 10.1365 0.846831C17.2999 -1.64668 25.1418 1.52725 28.4437 8.25893C31.8136 15.1275 29.5523 23.4267 23.1783 27.5749C17.0514 31.5635 8.53896 30.5368 4.1378 25.2035C4.51981 24.6037 4.91919 23.9756 5.3012 23.377C6.4793 24.2722 7.4931 25.1942 8.64448 25.8907C13.2233 28.6647 19.2847 28.0795 23.2892 24.5527C27.4552 20.8862 28.8123 15.1127 26.6885 10.0948C24.5421 5.02058 19.4343 1.86947 14.0581 2.30295C7.9085 2.79816 3.17876 7.49665 2.37333 13.6325C2.2037 14.9248 1.23398 16.1099 0.632907 17.3446C0.516701 17.2989 0.400495 17.2533 0.284288 17.2077V17.209Z" fill="#0E0939"/>
<path d="M20.3787 13.8781C20.9944 13.7358 22.5599 13.6889 24.6409 13.7922V19.7374C24.2536 20.2219 23.5603 20.96 22.4918 21.5197C20.6659 22.4752 18.9334 22.2766 17.9383 22.1706C16.9913 22.0699 15.283 21.8887 13.8284 20.6111C13.266 20.1172 12.9575 19.6489 12.5154 18.9658C11.6605 17.6465 11.4722 16.8668 10.64 14.7518C9.88803 12.8393 9.20415 11.347 8.45748 9.71507C8.00201 8.71928 7.61465 7.91405 7.36621 7.40273C7.70014 7.31953 8.27182 7.23095 8.93433 7.40273C9.96683 7.67114 10.5399 8.3945 10.7242 8.63607C10.9513 8.93132 11.0621 9.17423 11.2358 9.56074C12.1267 11.5443 12.5728 12.5374 12.7024 12.8501C12.9682 13.4916 13.2086 14.0807 13.6227 15.0604C13.6227 15.0604 13.8631 15.6294 14.3212 16.6024C14.6458 17.2909 14.7887 17.558 15.0198 17.8707C15.1534 18.0505 15.4125 18.3753 15.8039 18.7108C16.0737 18.9416 16.6627 19.4355 17.5777 19.7039C18.3284 19.924 18.9321 19.8864 19.3675 19.8582C19.811 19.83 20.4415 19.7844 21.1574 19.4476C21.5795 19.2489 21.8359 19.1644 22.1979 18.7282C22.246 18.6692 22.2313 18.5712 22.2326 18.4504C22.2353 18.2182 22.2326 17.9203 22.2326 17.7955C22.2366 17.4439 22.2393 17.2278 22.2366 16.9218C22.2353 16.7326 22.274 16.4991 22.2113 16.2025C22.1859 16.0844 20.5069 16.1448 20.4281 16.1515C20.3293 16.1596 19.8123 16.1569 19.6868 16.1555C19.27 16.1555 19.1912 16.1716 19.0109 16.177C18.6329 16.1891 18.6062 16.2844 18.6222 15.9851C18.6342 15.7489 18.6596 15.6335 18.6957 15.5087C18.8159 15.0993 18.9775 14.8403 18.9775 14.8403C19.2513 14.3975 19.6454 14.176 19.7789 14.1035C19.7789 14.1035 20.0501 13.9559 20.376 13.8808L20.3787 13.8781Z" fill="#0E0939"/>
<path d="M0.762695 22.2148H3.74132C3.77338 22.1289 3.82547 22.0001 3.90027 21.8498C4.67899 20.2863 6.27783 19.728 6.49154 19.6569C6.60241 19.6207 7.04853 19.4771 7.65094 19.4287C8.75824 19.3402 9.10152 19.677 9.74266 19.4059C9.83081 19.3684 10.5347 19.0583 10.675 18.3779C10.7605 17.9646 10.5975 17.6103 10.516 17.464C10.2729 17.0265 9.87489 16.8641 9.76536 16.8238H6.12823L6.33259 16.3219C6.48887 16.0012 6.65584 15.6106 6.80944 15.157C7.00446 14.5826 7.10463 14.1129 7.15005 13.8781C7.37044 12.7454 7.32903 11.8247 7.309 11.5026C7.23687 10.3619 6.96171 9.41979 6.69457 8.73804L0.762695 22.2148Z" fill="#6781DD"/>
<path d="M13.0059 10.4048C13.5041 9.77943 14.4003 8.56085 16.2369 7.86031C16.8607 7.62277 18.517 7.10071 20.3042 7.4228C21.6319 7.66303 22.6523 8.19313 23.1946 8.5367C23.7222 8.86952 24.1069 9.28958 24.3968 9.54725L22.8968 11.261C22.5094 10.9215 21.0214 9.81164 19.1114 9.81298C18.6519 9.81298 17.2948 9.85727 16.1448 10.7806C15.2151 11.5268 14.8184 12.4326 14.6782 12.8017C14.5526 13.1318 14.4818 13.419 14.4391 13.6244L13.0072 10.4035L13.0059 10.4048Z" fill="#6781DD"/>
</g>
<defs>
<clipPath id="clip0_73_305">
<rect width="30" height="30" fill="white"/>
</clipPath>
</defs>
</svg>
