<svg width="358" height="136" viewBox="0 0 358 136" fill="none" xmlns="http://www.w3.org/2000/svg">
<path d="M325.154 62.1344C324.922 61.9541 324.781 61.6579 324.729 61.2459C324.609 60.2846 324.983 58.5296 325.851 55.9809C326.642 53.372 328.085 49.2872 330.182 43.7264C332.286 38.2343 333.463 35.0892 333.713 34.2911C333.704 34.2224 333.391 34.2266 332.773 34.3036C332.224 34.372 331.434 34.4704 330.404 34.5988C329.443 34.7186 328.31 34.8598 327.005 35.0223C322.422 35.733 319.924 36.1139 319.512 36.1653C318.482 36.2936 317.907 35.8771 317.787 34.9158C317.685 34.0919 318.105 33.5513 319.05 33.2942C319.917 32.977 322.509 32.5145 326.826 31.9068L335.156 30.7641L335.865 28.8977C336.26 27.5933 336.432 26.735 336.381 26.3231C336.312 25.7737 336.604 25.04 337.257 24.1219C337.91 23.2038 338.442 22.7191 338.854 22.6678C339.747 22.5565 340.24 22.8786 340.334 23.6339C340.437 24.4579 340.144 25.7495 339.457 27.5086C338.873 28.9761 338.572 29.92 338.555 30.3406C338.632 30.4007 339.121 30.4095 340.022 30.3669C340.992 30.3158 342.134 30.2433 343.447 30.1494C345.867 29.9872 347.43 29.932 348.133 29.9838C348.906 30.027 349.352 30.2503 349.472 30.6537C349.558 30.7825 349.609 30.9156 349.626 31.0529C349.712 31.7395 348.51 32.1682 346.021 32.3389L343.24 32.6855L337.356 33.314L336.686 34.6527C333.894 41.904 331.201 49.3871 328.606 57.102C328.219 58.475 328.004 59.5478 327.961 60.3202C327.909 61.024 327.763 61.5303 327.523 61.8392C327.282 62.1481 326.956 62.3282 326.544 62.3795C325.995 62.448 325.531 62.3663 325.154 62.1344Z" fill="black"/>
<path d="M313.27 59.0131C312.489 58.9012 311.751 58.5748 311.056 58.0338C310.052 57.2524 309.473 56.2437 309.319 55.0077C309.097 53.2224 309.861 50.9655 311.613 48.2368C313.528 45.1392 315.55 43.4578 317.679 43.1925C319.67 42.9444 320.858 43.8074 321.244 45.7816C321.295 46.1936 321.282 46.6484 321.205 47.1462C320.552 49.1801 319.212 51.0205 317.186 52.6676C316.285 53.2681 315.456 53.6154 314.701 53.7095C314.152 53.778 313.585 53.7091 313.002 53.5029C312.633 53.3397 312.345 53.2709 312.139 53.2965C311.864 53.3308 311.813 53.7556 311.984 54.571C312.147 55.8757 313.121 56.4167 314.906 56.1943C317.859 55.8263 321.756 53.5277 326.598 49.2982C327.835 48.0285 328.796 47.3508 329.483 47.2652C329.895 47.2139 330.234 47.4157 330.5 47.8707C330.663 48.0596 330.761 48.2914 330.795 48.566C330.881 49.2527 330.039 50.3338 328.271 51.8093C323.042 56.2961 318.849 58.7363 315.69 59.1299L315.484 59.1555C315.003 59.2154 314.265 59.1679 313.27 59.0131ZM316.634 49.0756C317.707 47.6169 318.214 46.6473 318.154 46.1666L318.141 46.0636C318.064 46.0035 317.957 45.982 317.819 45.9991C317.201 46.0761 316.278 46.7839 315.051 48.1223C314.252 48.9888 313.87 49.5594 313.904 49.8341C313.921 49.9714 314.007 50.1002 314.162 50.2204C314.325 50.4093 314.509 50.4909 314.715 50.4652C315.127 50.4139 315.767 49.9507 316.634 49.0756Z" fill="black"/>
<path d="M289.599 61.0214C288.277 60.4888 287.509 59.3641 287.295 57.6475C287.133 56.3429 287.361 54.8152 287.98 53.0646C289.122 49.9238 290.054 47.89 290.776 46.9634C291.085 46.6459 291.411 46.4658 291.754 46.423C292.303 46.3546 292.78 46.5393 293.183 46.9772C293.492 47.2176 293.659 47.4408 293.685 47.6468C293.728 47.9901 293.479 48.5093 292.938 49.2043C290.902 53.0142 289.978 55.6745 290.167 57.1851C290.235 57.7345 290.475 57.9834 290.887 57.9321C292.261 57.761 295.257 54.947 299.877 49.4902C300.598 48.5635 301.238 47.8213 301.796 47.2637C302.414 46.6288 302.757 46.3071 302.826 46.2985C303.581 46.2044 304.118 46.5908 304.435 47.4578C304.486 47.8698 304.232 48.9125 303.674 50.5859C302.772 52.86 302.381 54.4777 302.501 55.439C302.586 56.1256 302.938 56.4304 303.556 56.3534C304.586 56.2251 306.539 54.5522 309.416 51.3348C309.896 50.717 310.356 50.2065 310.794 49.8033C311.231 49.4001 311.519 49.1899 311.656 49.1728C312.48 49.0701 312.991 49.5295 313.188 50.5509C313.299 51.4436 312.269 52.9666 310.096 55.12C307.984 57.1962 306.13 58.543 304.533 59.1604C304.267 59.2632 304.031 59.3275 303.825 59.3532C301.696 59.6184 300.294 58.4335 299.617 55.7984L299.475 54.6654L297.814 56.4414C295.393 58.835 293.354 60.3791 291.697 61.0737L291.182 61.1379C290.701 61.1978 290.174 61.1589 289.599 61.0214Z" fill="black"/>
<path d="M268.529 64.379C267.482 63.8122 266.869 62.8078 266.689 61.3658C266.544 60.1985 266.72 58.8168 267.219 57.2206C268.671 53.7623 270.35 51.2868 272.255 49.7942C272.453 49.6998 272.655 49.6398 272.861 49.6141C273.753 49.5029 274.427 49.8722 274.881 50.7221C274.916 50.9967 275.263 51.5462 275.924 52.3704C276.49 52.9971 276.85 53.3706 277.005 53.4908C277.005 53.4908 277.429 53.5425 278.279 53.6458C278.631 53.6717 279.013 53.659 279.425 53.6076C281.21 53.3851 283.468 52.4762 286.198 50.8809C287.674 49.8601 288.687 49.3155 289.237 49.2471C289.649 49.1957 289.983 49.3632 290.241 49.7495C290.481 49.9985 290.618 50.2603 290.652 50.535C290.789 51.6336 288.978 53.0448 285.218 54.7685C283.449 55.6862 281.638 56.2605 279.784 56.4915L277.518 56.7739L276.977 58.3057C276.066 60.5111 274.783 62.24 273.126 63.4925C272.216 64.0243 271.28 64.35 270.319 64.4698C269.563 64.564 268.967 64.5337 268.529 64.379ZM271.157 61.1229C272.582 60.248 273.617 59.0382 274.261 57.4936L274.622 56.1935L273.554 55.176C272.764 54.4376 272.301 54.0769 272.164 54.0941C272.026 54.1112 271.786 54.4201 271.442 55.0207C271.099 55.6214 270.768 56.325 270.45 57.1317C270.124 57.8697 269.892 58.5262 269.754 59.1011C269.574 59.8907 269.518 60.5601 269.586 61.1094C269.638 61.5214 269.77 61.7489 269.985 61.7919C270.122 61.7748 270.513 61.5518 271.157 61.1229Z" fill="black"/>
<path d="M259.502 65.0856C258.112 64.5615 257.288 63.2695 257.032 61.2096L256.839 59.6646L254.302 61.9681C252.671 63.4265 251.37 64.4603 250.4 65.0693C249.49 65.601 248.692 65.9097 248.005 65.9953C246.563 66.175 245.679 65.518 245.354 64.0245C245.26 63.2692 245.419 62.308 245.831 61.1409C246.759 59.0728 248.412 56.9493 250.79 54.7702C253.117 52.7369 255.139 51.6134 256.855 51.3995C258.503 51.1941 259.769 51.8383 260.652 53.332C260.832 53.6582 260.948 54.0273 260.999 54.4393C261.094 55.1946 260.874 56.2331 260.342 57.5546C259.929 58.7217 259.783 59.7859 259.903 60.7472C259.894 61.2364 259.907 61.6183 259.941 61.893C260.001 62.3737 260.263 62.5154 260.726 62.3181C261.962 62.1641 263.619 60.9117 265.697 58.5608C266.856 57.2309 267.745 56.5275 268.363 56.4505C268.637 56.4163 268.929 56.5194 269.238 56.7598C269.624 57.0603 269.834 57.3479 269.868 57.6226C269.937 58.1719 269.572 58.8799 268.773 59.7464C265.914 63.1012 263.351 64.9197 261.085 65.2021C260.536 65.2705 260.008 65.2317 259.502 65.0856ZM250.195 61.7477C253.964 58.419 256.446 55.9482 257.639 54.3351C257.545 54.1376 257.361 54.056 257.086 54.0902C256.537 54.1587 255.682 54.5789 254.523 55.3509C252.197 56.8263 250.338 58.6966 248.947 60.9619C248.303 61.9486 247.998 62.5794 248.032 62.854C248.041 62.9227 248.114 62.9484 248.251 62.9313C248.526 62.8971 249.174 62.5026 250.195 61.7477Z" fill="black"/>
<path d="M211.53 109.973C210.156 109.587 209.38 108.672 209.2 107.23C209.064 106.132 209.283 104.814 209.858 103.278C211.998 97.5029 216.785 91.7114 224.22 85.9038C225.937 84.5741 227.044 83.6691 227.542 83.1886C227.86 82.382 228.805 79.8934 230.377 75.7228C232.706 69.2265 234.162 64.129 234.748 60.4301C234.937 59.7092 235.018 59.2457 234.993 59.0398C234.976 58.9024 234.903 58.8766 234.774 58.9624L234.568 58.9881C234.31 59.1596 233.512 59.7473 232.173 60.7509C230.893 61.6774 229.108 63.0156 226.815 64.7656C224.523 66.5156 221.819 68.5959 218.702 71.0064C212.478 75.8962 207.954 79.3189 205.129 81.2747C202.296 83.1618 199.725 84.6328 197.416 85.6876C194.643 86.9396 192.33 87.6811 190.476 87.9121C187.729 88.2544 185.794 87.5542 184.671 85.8115C184.225 85.0303 183.92 83.9873 183.758 82.6827C183.57 81.1721 183.613 79.5628 183.888 77.855C186.167 67.5995 193.149 55.0843 204.836 40.3094C215.458 27.6196 225.726 19.088 235.64 14.7146C237.503 13.9944 239.293 13.5273 241.009 13.3134C242.52 13.1252 243.782 13.1771 244.794 13.4693C247.841 14.4146 249.582 16.6382 250.019 20.1401C250.361 22.8867 249.9 26.4655 248.637 30.8765C247.554 35.6138 246.429 38.0551 245.261 38.2006C244.369 38.3118 243.858 37.8524 243.73 36.8225C243.67 36.3418 243.743 35.8097 243.949 35.2262C244.224 34.6341 244.336 34.132 244.285 33.72C244.242 33.3767 244.366 32.9777 244.658 32.5229C245.569 30.8754 246.364 28.0219 247.043 23.9626C247.224 22.6151 247.25 21.4264 247.122 20.3965C246.857 18.2679 245.814 16.8985 243.995 16.2885C243.274 16.0994 242.364 16.0733 241.266 16.2102C239.275 16.4583 236.927 17.2041 234.223 18.4476C227.089 22.1955 219.856 27.6642 212.524 34.8537C203.577 44.1968 196.347 54.1629 190.832 64.7518C187.199 72.5264 185.618 78.3019 186.088 82.0785C186.242 83.3145 186.632 84.2072 187.259 84.7568C187.713 85.0487 188.194 85.2678 188.7 85.4139C188.984 85.4483 189.331 85.4399 189.743 85.3885C192.49 85.0463 196.717 83.1597 202.426 79.7288C204.83 78.3136 210.483 74.1574 219.386 67.2603C225.361 62.6108 229.311 59.6083 231.234 58.253C233.157 56.8977 234.427 56.1815 235.045 56.1045C235.801 56.0104 236.371 56.1136 236.757 56.4141C237.066 56.6546 237.268 57.1524 237.362 57.9077C237.704 60.6543 236.402 66.43 233.454 75.2347C232.879 76.7708 232.441 78.0108 232.14 78.9548C231.899 79.8216 231.792 80.358 231.817 80.564L231.92 80.5511C234.264 79.2131 236.054 78.4671 237.29 78.3131C238.388 78.1762 238.993 78.5541 239.105 79.4467L239.143 79.7557C239.426 80.348 238.817 80.7726 237.314 81.0295C236.224 81.2351 234.615 82.0284 232.486 83.4094L229.485 85.3522L227.849 89.0078C224.387 97.0399 221.226 102.733 218.367 106.088C216.435 108.49 214.611 109.799 212.894 110.013C212.414 110.072 211.959 110.059 211.53 109.973ZM214.866 105.688C217.416 103.208 220.25 98.8107 223.367 92.495C224.201 90.7873 224.634 89.7919 224.669 89.5087C224.394 89.5429 223.759 90.0405 222.763 91.0014C221.767 91.9622 220.685 93.0733 219.517 94.3345C218.35 95.5957 217.341 96.7325 216.491 97.745C213.614 101.52 212.15 104.318 212.097 106.137L212.187 106.858C212.213 107.064 212.294 107.159 212.432 107.141C212.569 107.124 212.737 107.069 212.934 106.974C213.526 106.691 214.17 106.262 214.866 105.688Z" fill="black"/>
<path d="M137.483 86.4618C137.011 86.0325 136.741 85.5432 136.673 84.9939C136.339 82.3159 139.731 78.1975 146.848 72.6386C148.925 71.4035 149.917 70.1294 149.823 68.8162C150.159 67.589 150.296 66.7351 150.236 66.2544C150.185 65.8424 149.953 65.6621 149.541 65.7134C149.061 65.7733 148.305 66.1464 147.275 66.8326C144.897 68.4538 142.27 71.1521 139.393 74.9274C137.856 77.1411 136.813 78.2822 136.263 78.3507C136.126 78.3678 135.984 78.3506 135.839 78.299C135.272 78.2302 134.907 77.8223 134.745 77.0756L134.732 76.9726C134.663 76.4233 134.977 75.0244 135.673 72.776C136.438 70.519 137.933 66.2883 140.158 60.0839C141.92 55.1924 143.217 51.6139 144.05 49.3484C144.875 47.0142 145.455 45.5125 145.79 44.8432C146.125 44.1738 146.4 43.8607 146.614 43.9037L146.82 43.878C147.644 43.7753 148.206 44.0888 148.506 44.8184C148.524 44.9558 148.382 45.4964 148.081 46.4404C147.78 47.3844 147.342 48.6244 146.766 50.1605C146.251 51.6194 145.654 53.2627 144.975 55.0906C144.356 56.8412 143.708 58.6305 143.029 60.4583C141.869 63.4618 141.036 65.7274 140.529 67.2549L139.949 69.3145L141.713 67.5257C145.165 64.4458 147.749 62.7989 149.465 62.585C150.495 62.4567 151.255 62.6758 151.744 63.2425C152.396 63.4401 152.812 64.2599 152.992 65.7019C153.103 66.5945 153.102 67.4313 152.991 68.2123C152.948 68.4269 152.935 68.6028 152.952 68.7401C152.969 68.8775 153.012 68.9419 153.08 68.9333C153.286 68.9076 153.681 68.719 154.265 68.3673C158.085 66.5664 160.51 65.6018 161.54 65.4734C162.501 65.3536 163.038 65.74 163.149 66.6327L163.187 66.9417C163.264 67.5597 162.934 67.9844 162.196 68.2158C158.822 69.6822 155.659 71.1572 152.706 72.6409C151.976 72.941 151.023 74.2452 149.846 76.5535C148.197 79.5482 146.411 82.0022 144.488 83.9154C142.625 85.7514 140.938 86.7635 139.427 86.9518C138.672 87.0459 138.024 86.8826 137.483 86.4618ZM143.768 80.658C144.618 79.6456 145.245 78.8004 145.649 78.1225C145.941 77.6678 146.078 77.3717 146.061 77.2344L145.958 77.2472L145.572 77.5046C144.619 78.2509 143.468 79.3705 142.12 80.8634C140.772 82.3562 140.115 83.24 140.149 83.5147C140.158 83.5833 140.197 83.6134 140.265 83.6048C140.471 83.5792 140.922 83.2789 141.617 82.7042C142.381 82.1208 143.098 81.4388 143.768 80.658Z" fill="black"/>
<path d="M114.985 82.7803C113.664 82.2477 112.896 81.123 112.682 79.4064C112.52 78.1018 112.748 76.5742 113.366 74.8235C114.509 71.6827 115.441 69.6489 116.162 68.7223C116.471 68.4048 116.798 68.2247 117.141 68.1819C117.69 68.1135 118.166 68.2982 118.57 68.7361C118.879 68.9765 119.046 69.1997 119.072 69.4057C119.114 69.749 118.865 70.2682 118.324 70.9632C116.289 74.7731 115.365 77.4334 115.553 78.9441C115.622 79.4934 115.862 79.7424 116.274 79.691C117.647 79.5199 120.644 76.7059 125.263 71.2491C125.985 70.3224 126.624 69.5803 127.182 69.0226C127.801 68.3877 128.144 68.066 128.213 68.0574C128.968 67.9633 129.504 68.3497 129.821 69.2167C129.873 69.6287 129.619 70.6714 129.061 72.3448C128.159 74.6189 127.768 76.2366 127.887 77.1979C127.973 77.8845 128.325 78.1894 128.943 78.1123C129.973 77.984 131.926 76.3111 134.802 73.0937C135.283 72.4759 135.742 71.9654 136.18 71.5622C136.618 71.159 136.906 70.9488 137.043 70.9317C137.867 70.829 138.378 71.2884 138.575 72.3098C138.686 73.2025 137.655 74.7255 135.483 76.8789C133.371 78.9551 131.517 80.3019 129.92 80.9193C129.654 81.0222 129.418 81.0864 129.212 81.1121C127.083 81.3774 125.68 80.1924 125.003 77.5573L124.862 76.4243L123.201 78.2003C120.78 80.5939 118.741 82.138 117.084 82.8326L116.569 82.8968C116.088 82.9567 115.56 82.9178 114.985 82.7803Z" fill="black"/>
<path d="M93.916 86.1379C92.8691 85.5711 92.2558 84.5666 92.0762 83.1247C91.9307 81.9574 92.1072 80.5756 92.6056 78.9794C94.0574 75.5212 95.7362 73.0457 97.6422 71.553C97.8396 71.4587 98.0413 71.3987 98.2473 71.373C99.14 71.2618 99.8136 71.6311 100.268 72.481C100.302 72.7556 100.65 73.3051 101.31 74.1292C101.877 74.756 102.237 75.1295 102.391 75.2497C102.391 75.2497 102.816 75.3014 103.666 75.4047C104.018 75.4306 104.4 75.4178 104.812 75.3665C106.597 75.144 108.854 74.2351 111.584 72.6398C113.061 71.619 114.074 71.0744 114.623 71.0059C115.035 70.9546 115.37 71.1221 115.627 71.5084C115.867 71.7574 116.005 72.0192 116.039 72.2939C116.176 73.3925 114.364 74.8037 110.604 76.5274C108.836 77.445 107.025 78.0194 105.171 78.2504L102.905 78.5328L102.364 80.0646C101.453 82.27 100.169 83.9989 98.5124 85.2514C97.6024 85.7831 96.6668 86.1089 95.7055 86.2287C94.9502 86.3228 94.3537 86.2926 93.916 86.1379ZM96.5435 82.8818C97.9686 82.0069 99.0033 80.7971 99.6476 79.2525L100.009 77.9523L98.9404 76.9349C98.1511 76.1965 97.6877 75.8358 97.5504 75.8529C97.4131 75.87 97.1726 76.1789 96.8291 76.7796C96.4856 77.3802 96.1549 78.0839 95.837 78.8906C95.5106 79.6285 95.2786 80.285 95.1411 80.86C94.9605 81.6496 94.9045 82.319 94.9729 82.8683C95.0243 83.2803 95.1572 83.5078 95.3718 83.5508C95.5091 83.5337 95.8997 83.3107 96.5435 82.8818Z" fill="black"/>
<path d="M73.7774 117.098C73.6229 116.978 73.5201 116.712 73.4687 116.3C73.3489 115.338 73.7832 113.227 74.7714 109.966C75.7597 106.705 77.4867 101.818 79.9524 95.3044C82.2378 89.0228 83.6983 85.0753 84.3341 83.462L84.9527 81.7114L82.8276 83.9635C79.8911 87.2581 77.4272 89.0295 75.4359 89.2777C75.0239 89.329 74.6377 89.3074 74.2772 89.2129C73.0071 89.0922 72.2736 88.2423 72.0768 86.663L71.9741 85.839C72.0179 83.3929 72.9461 80.2091 74.7585 76.2875C75.5575 74.3052 76.2659 73.2755 76.8839 73.1985C77.2272 73.1558 77.5962 73.319 77.9909 73.6882C78.4457 73.9802 78.6944 74.2978 78.7372 74.6411C78.8057 75.1905 78.4878 75.9971 77.7836 77.0611C76.2289 80.2533 75.2537 83.0594 74.858 85.4796L74.8837 85.6856C74.9265 86.0289 75.1195 86.1792 75.4628 86.1364C76.0808 86.0594 77.1969 85.223 78.811 83.6273C80.4252 82.0315 82.31 79.8093 84.4653 76.9606C85.7361 75.4077 86.8266 74.0863 87.7368 72.9967C88.647 71.907 89.2008 71.315 89.3983 71.2207C89.527 71.1349 89.6257 71.0878 89.6944 71.0792C90.3811 70.9936 90.9517 71.3758 91.4062 72.2256C91.4233 72.363 91.273 72.835 90.9551 73.6416C90.7059 74.4397 90.3708 75.388 89.9498 76.4864C89.211 78.3915 88.339 80.6269 87.3338 83.1928C86.3973 85.7501 85.4093 88.4532 84.3697 91.3023C83.3301 94.1514 82.3248 96.9962 81.3539 99.8367C80.3744 102.608 79.4723 105.162 78.6474 107.496C77.8827 109.753 77.2769 111.606 76.8301 113.057C76.3832 114.507 76.1726 115.335 76.1983 115.541C76.2496 115.953 76.1551 116.313 75.9147 116.622C75.5369 116.948 75.1077 117.141 74.627 117.201C74.2837 117.244 74.0005 117.21 73.7774 117.098Z" fill="black"/>
<path d="M43.6014 118.766C43.2925 118.526 43.1167 118.234 43.0739 117.891C43.0225 117.479 43.0871 116.878 43.2677 116.088C43.6807 113.248 45.4121 108.116 48.4618 100.693C53.0493 89.3827 55.9574 81.9426 57.1861 78.3726L56.7741 78.424C55.6754 78.5609 52.9803 79.0362 48.6886 79.8499C43.2468 80.9464 38.792 81.8502 35.3243 82.5612C33.6162 82.8438 32.3244 83.1094 31.4489 83.358C30.642 83.598 30.1785 83.7952 30.0583 83.9496C28.5896 86.7127 26.2317 91.8528 22.9846 99.37C20.562 105.111 18.6289 110.303 17.1853 114.945C16.3258 118.121 15.5184 119.755 14.7631 119.85C14.0764 119.935 13.4887 119.416 12.9999 118.291C12.9572 117.948 13.2065 116.871 13.7479 115.06C14.3579 113.241 15.0754 111.164 15.9002 108.83C16.725 106.496 17.5069 104.376 18.2457 102.471C20.6338 97.0132 23.1034 91.65 25.6544 86.3811C26.2299 85.4029 26.5047 84.8108 26.4791 84.6048C26.4705 84.5362 26.4319 84.5061 26.3632 84.5147C26.2946 84.5232 25.0757 84.8146 22.7067 85.3887C20.3462 86.0315 17.1316 86.8156 13.0631 87.741L6.8701 89.2449L6.16227 88.6009C5.78472 88.369 5.57456 88.0814 5.53177 87.7381C5.51466 87.6008 5.5276 87.4248 5.5706 87.2103C5.58792 86.7898 5.76397 86.5238 6.09874 86.4123C6.49361 86.2236 7.3992 85.9365 8.81549 85.5508C11.1845 84.9766 14.6479 84.2313 19.2057 83.3147C23.6862 82.3379 26.3986 81.721 27.3428 81.4639C27.6861 81.4211 28.0725 81.1638 28.5018 80.6919C28.9225 80.1514 29.528 79.1345 30.3182 77.6414C38.1682 63.4143 45.9441 52.2297 53.6459 44.0877C58.3168 39.0428 62.0942 36.3407 64.9782 35.9814C66.8321 35.7503 68.3124 36.4375 69.4189 38.0429C69.8478 38.6868 70.1435 39.661 70.3061 40.9657C70.5286 42.7509 70.4635 44.7464 70.1107 46.952C68.9409 53.792 66.3671 62.2364 62.3895 72.2852L61.3586 74.924L68.1564 74.0769C71.8643 73.6149 74.6237 73.3756 76.4347 73.3591C77.8336 73.394 78.5716 73.7204 78.6486 74.3384C78.6658 74.4757 78.6185 74.6559 78.5068 74.879C78.4638 75.0936 78.2406 75.2609 77.8372 75.3809C77.4337 75.5009 76.5454 75.6464 75.1721 75.8176C73.9361 75.9716 72.1809 76.1555 69.9064 76.3692L66.0955 76.844C63.2116 77.2034 61.4992 77.4517 60.9585 77.5888C60.6924 77.6917 60.2586 78.4082 59.6574 79.7382C59.1247 81.0598 58.3386 83.1451 57.299 85.9941C55.2457 91.3404 53.4287 96.0645 51.8479 100.166C49.7689 105.307 48.2955 109.151 47.4277 111.7C46.5684 114.317 46.1901 116.038 46.2928 116.862L46.3313 117.171C46.4943 117.36 46.5929 117.592 46.6271 117.866C46.6528 118.072 46.6098 118.287 46.4981 118.51C46.2834 119.025 45.9013 119.316 45.352 119.385C44.734 119.462 44.1505 119.256 43.6014 118.766ZM42.0589 78.6887C47.2432 77.7638 51.0928 77.04 53.6078 76.5174C56.054 76.0034 57.4145 75.7293 57.6892 75.695C58.0325 75.6523 58.4447 75.043 58.9258 73.8674C59.4069 72.6917 60.2875 70.246 61.5678 66.5302C65.8466 54.4216 67.8108 46.4018 67.4604 42.4708L67.3449 41.5439C67.0882 39.4839 66.4148 38.5567 65.3247 38.7623L65.2217 38.7751C63.2991 39.0147 59.5774 41.8842 54.0566 47.3836C47.4023 54.4189 40.6913 64.0762 33.9234 76.3554C33.3651 77.471 32.8884 78.402 32.4933 79.1485C32.0897 79.8264 31.8921 80.1997 31.9007 80.2684C31.9092 80.337 32.2225 80.3328 32.8405 80.2558C34.0078 80.1104 37.0806 79.588 42.0589 78.6887Z" fill="black"/>
</svg>
